<svg xmlns="http://www.w3.org/2000/svg" xmlns:xlink="http://www.w3.org/1999/xlink" width="98.529" height="98.529" viewBox="0 0 98.529 98.529">
  <defs>
    <filter id="Path_904820" x="0" y="0" width="98.529" height="98.529" filterUnits="userSpaceOnUse">
      <feOffset dy="3" input="SourceAlpha"/>
      <feGaussianBlur stdDeviation="3" result="blur"/>
      <feFlood flood-opacity="0.161"/>
      <feComposite operator="in" in2="blur"/>
      <feComposite in="SourceGraphic"/>
    </filter>
  </defs>
  <g id="Group_1176762" data-name="Group 1176762" transform="translate(4.265 1.265)">
    <g id="Group_1173585" data-name="Group 1173585" transform="translate(4.735 4.735)">
      <g id="Group_1173428" data-name="Group 1173428">
        <g id="Group_1171958" data-name="Group 1171958">
          <g id="Group_1167341" data-name="Group 1167341">
            <g id="Group_1166792" data-name="Group 1166792">
              <g transform="matrix(1, 0, 0, 1, -9, -6)" filter="url(#Path_904820)">
                <g id="Path_904820-2" data-name="Path 904820" transform="translate(9 6)" fill="#e8eafd">
                  <path d="M 40.2646484375 79.029296875 C 35.03078842163086 79.029296875 29.95429611206055 78.00457763671875 25.17615509033203 75.98358917236328 C 20.56027221679688 74.03123474121094 16.41446113586426 71.23595428466797 12.85390758514404 67.67539215087891 C 9.293342590332031 64.11483764648438 6.49806022644043 59.96902465820312 4.545707225799561 55.35314178466797 C 2.524718999862671 50.57500076293945 1.500001430511475 45.49850845336914 1.500001430511475 40.2646484375 C 1.500001430511475 35.03078842163086 2.524718999862671 29.95429611206055 4.545707225799561 25.17615509033203 C 6.49806022644043 20.56027221679688 9.293342590332031 16.41446113586426 12.85390758514404 12.85390758514404 C 16.41446113586426 9.293342590332031 20.56027221679688 6.49806022644043 25.17615509033203 4.545707225799561 C 29.95429611206055 2.524718999862671 35.03078842163086 1.500001430511475 40.2646484375 1.500001430511475 C 45.49850845336914 1.500001430511475 50.57500076293945 2.524718999862671 55.35314178466797 4.545707225799561 C 59.96902465820312 6.49806022644043 64.11483764648438 9.293342590332031 67.67539215087891 12.85390758514404 C 71.23595428466797 16.41446113586426 74.03123474121094 20.56027221679688 75.98358917236328 25.17615509033203 C 78.00457763671875 29.95429611206055 79.029296875 35.03078842163086 79.029296875 40.2646484375 C 79.029296875 45.49850845336914 78.00457763671875 50.57500076293945 75.98358917236328 55.35314178466797 C 74.03123474121094 59.96902465820312 71.23595428466797 64.11483764648438 67.67539215087891 67.67539215087891 C 64.11483764648438 71.23595428466797 59.96902465820312 74.03123474121094 55.35314178466797 75.98358917236328 C 50.57500076293945 78.00457763671875 45.49850845336914 79.029296875 40.2646484375 79.029296875 Z" stroke="none"/>
                  <path d="M 40.2646484375 2.999992370605469 C 35.23263549804688 2.999992370605469 30.35272979736328 3.984848022460938 25.7604866027832 5.927207946777344 C 21.32339477539062 7.803932189941406 17.33784866333008 10.49127197265625 13.91456604003906 13.91455841064453 C 10.49127197265625 17.33784866333008 7.803939819335938 21.32339477539062 5.927207946777344 25.7604866027832 C 3.984848022460938 30.35272979736328 2.999992370605469 35.23263549804688 2.999992370605469 40.2646484375 C 2.999992370605469 45.29666137695312 3.984848022460938 50.17656707763672 5.927207946777344 54.76880645751953 C 7.803939819335938 59.20590209960938 10.49127197265625 63.19144821166992 13.91456604003906 66.61473083496094 C 17.33784866333008 70.03802490234375 21.32339477539062 72.72535705566406 25.7604866027832 74.60208892822266 C 30.35272979736328 76.54444885253906 35.23263549804688 77.52930450439453 40.2646484375 77.52930450439453 C 45.29666137695312 77.52930450439453 50.17656707763672 76.54444885253906 54.76880645751953 74.60208892822266 C 59.20590209960938 72.72535705566406 63.19144821166992 70.03802490234375 66.61473083496094 66.61473083496094 C 70.03802490234375 63.19144821166992 72.72535705566406 59.20590209960938 74.60208892822266 54.76880645751953 C 76.54444885253906 50.17656707763672 77.52930450439453 45.29666137695312 77.52930450439453 40.2646484375 C 77.52930450439453 35.23263549804688 76.54444885253906 30.35272979736328 74.60208892822266 25.7604866027832 C 72.72535705566406 21.32339477539062 70.03802490234375 17.33784866333008 66.61473083496094 13.91455841064453 C 63.19144821166992 10.49127197265625 59.20590209960938 7.803932189941406 54.76880645751953 5.927207946777344 C 50.17656707763672 3.984848022460938 45.29666137695312 2.999992370605469 40.2646484375 2.999992370605469 M 40.2646484375 -7.62939453125e-06 C 62.502197265625 -7.62939453125e-06 80.52930450439453 18.0270881652832 80.52930450439453 40.2646484375 C 80.52930450439453 62.502197265625 62.502197265625 80.52930450439453 40.2646484375 80.52930450439453 C 18.02710342407227 80.52930450439453 -7.62939453125e-06 62.502197265625 -7.62939453125e-06 40.2646484375 C -7.62939453125e-06 18.0270881652832 18.02710342407227 -7.62939453125e-06 40.2646484375 -7.62939453125e-06 Z" stroke="none" fill="#2d3bf3"/>
                </g>
              </g>
            </g>
          </g>
        </g>
      </g>
    </g>
    <g id="Filled_outline" data-name="Filled outline" transform="translate(19.702 21.064)">
      <path id="Path_1033247" data-name="Path 1033247" d="M36.887,54V40.759a8.85,8.85,0,0,0,4.4-10.625L36.081,35.3a1.954,1.954,0,0,1-2.755-.008l-2.9-2.9a1.954,1.954,0,0,1-.008-2.755l5.167-5.209a8.838,8.838,0,0,0-3.831-.366,8.863,8.863,0,0,0-2.933,16.692V54a8.85,8.85,0,0,0-4.4,10.625l5.209-5.167a1.954,1.954,0,0,1,2.755.008l2.9,2.9a1.954,1.954,0,0,1,.008,2.755l-5.167,5.209a8.838,8.838,0,0,0,3.831.366A8.863,8.863,0,0,0,36.887,54Z" transform="translate(-23.18 -23.192)" fill="#d6d6d4"/>
      <path id="Path_1033248" data-name="Path 1033248" d="M36.887,231.445V221.333l-8.062,8.062v2.051a8.85,8.85,0,0,0-4.4,10.625l5.209-5.167a1.954,1.954,0,0,1,2.756.008l2.9,2.9a1.954,1.954,0,0,1,.008,2.756l-5.167,5.209a8.838,8.838,0,0,0,3.831.366,8.863,8.863,0,0,0,2.933-16.692Z" transform="translate(-23.18 -200.641)" fill="#c7c7c5"/>
      <path id="Path_1033249" data-name="Path 1033249" d="M104,184h1.612v14.511H104Z" transform="translate(-95.129 -167.07)" fill="#b0b0ae"/>
      <path id="Path_1033250" data-name="Path 1033250" d="M214.634,241.736v-7.091a4.837,4.837,0,0,0-4.153-4.788l-7.133-1.019V224h-8.062v4.837l-7.463,1.6A4.837,4.837,0,0,0,184,235.165v6.57" transform="translate(-167.068 -203.039)" fill="#fec9a3"/>
      <path id="Path_1033251" data-name="Path 1033251" d="M296,224v2.807a7.252,7.252,0,0,0,8.062,0V224Z" transform="translate(-267.782 -203.039)" fill="#feb784"/>
      <path id="Path_1033252" data-name="Path 1033252" d="M210.481,273.019,203.348,272l-1.727,4.837h-4.607L195.286,272l-7.463,1.6A4.837,4.837,0,0,0,184,278.328v6.57h30.634v-7.091a4.837,4.837,0,0,0-4.153-4.788Z" transform="translate(-167.068 -246.202)" fill="#e0e0de"/>
      <path id="Path_1033253" data-name="Path 1033253" d="M214.634,277.807v8.7h-5.643v8.062H189.643v-7.255H184v-8.989a4.837,4.837,0,0,1,3.823-4.729l7.463-1.6,4.031,11.286L203.348,272l7.133,1.019A4.839,4.839,0,0,1,214.634,277.807Z" transform="translate(-167.068 -246.202)" fill="#425b82"/>
      <path id="Path_1033254" data-name="Path 1033254" d="M264.991,298.427v8.7h-5.643v8.062H240v-3.805c9.229-3.669,17-7.566,23.5-16.457A4.827,4.827,0,0,1,264.991,298.427Z" transform="translate(-217.425 -266.821)" fill="#3c5174"/>
      <g id="Group_1176806" data-name="Group 1176806" transform="translate(21.769 33.86)">
        <path id="Path_1033255" data-name="Path 1033255" d="M328,384h1.612v11.286H328Z" transform="translate(-318.326 -380.775)" fill="#334562"/>
        <path id="Path_1033256" data-name="Path 1033256" d="M360,376h7.255v1.612H360Z" transform="translate(-347.101 -373.582)" fill="#334562"/>
        <path id="Path_1033257" data-name="Path 1033257" d="M296,368h1.612v1.612H296Z" transform="translate(-289.551 -366.388)" fill="#334562"/>
        <path id="Path_1033258" data-name="Path 1033258" d="M424,352h1.612v12.9H424Z" transform="translate(-404.652 -352)" fill="#334562"/>
        <path id="Path_1033259" data-name="Path 1033259" d="M232,352h1.612v12.9H232Z" transform="translate(-232 -352)" fill="#334562"/>
      </g>
      <path id="Path_1033260" data-name="Path 1033260" d="M265.871,265.457l.618,7.411,4.4-2.514L268.907,264Z" transform="translate(-240.689 -239.008)" fill="#49648e"/>
      <path id="Path_1033261" data-name="Path 1033261" d="M356.339,270.354l4.4,2.514.635-7.625L358.32,264Z" transform="translate(-322.04 -239.008)" fill="#49648e"/>
      <path id="Path_1033262" data-name="Path 1033262" d="M187.225,394.48h2.418l15.317-3.225h4.031l1.612-1.612h4.031V384H210.6l-5.643,2.418L184,388.031v3.225A3.225,3.225,0,0,0,187.225,394.48Z" transform="translate(-167.068 -346.916)" fill="#feb784"/>
      <path id="Path_1033263" data-name="Path 1033263" d="M211.409,394.48h-2.418l-15.317-3.225h-4.031l-1.612-1.612H184V384h4.031l5.643,2.418,20.96,1.612v3.225A3.225,3.225,0,0,1,211.409,394.48Z" transform="translate(-167.068 -346.916)" fill="#fec9a3"/>
      <path id="Path_1033264" data-name="Path 1033264" d="M408.806,128H408v4.837h.806a2.418,2.418,0,0,0,0-4.837Z" transform="translate(-368.495 -116.713)" fill="#feb784"/>
      <path id="Path_1033265" data-name="Path 1033265" d="M234.459,128h-.04a2.418,2.418,0,1,0,0,4.837h.806V128Z" transform="translate(-210.231 -116.713)" fill="#feb784"/>
      <path id="Path_1033266" data-name="Path 1033266" d="M278.511,55.255V60.9a7.256,7.256,0,0,1-7.255,7.255,7.445,7.445,0,0,1-.755-.038A7.258,7.258,0,0,1,264,60.9V55.255A7.256,7.256,0,0,1,271.255,48q.3,0,.6.024h0A7.255,7.255,0,0,1,278.511,55.255Z" transform="translate(-239.006 -44.774)" fill="#fec9a3"/>
      <path id="Path_1033267" data-name="Path 1033267" d="M336.527,55.48v5.643a7.256,7.256,0,0,1-7.255,7.255,7.446,7.446,0,0,1-.755-.038,8.867,8.867,0,0,0,5.087-8.023V55.48a8.878,8.878,0,0,0-3.734-7.23A7.255,7.255,0,0,1,336.527,55.48Z" transform="translate(-297.023 -44.999)" fill="#fec093"/>
      <path id="Path_1033268" data-name="Path 1033268" d="M267.809,52.147a17.57,17.57,0,0,0,6.893,0l.584-.117,3.225,3.762v-.537a7.255,7.255,0,1,0-14.511,0v.537l3.225-3.762Z" transform="translate(-239.006 -44.774)" fill="#7a432a"/>
      <path id="Path_1033269" data-name="Path 1033269" d="M313.707,181.822H312V180.21h1.707a9.984,9.984,0,0,0,2.9-.425l.468,1.543A11.589,11.589,0,0,1,313.707,181.822Z" transform="translate(-282.169 -163.279)" fill="#f7a468"/>
      <ellipse id="Ellipse_11507" data-name="Ellipse 11507" cx="1.209" cy="1.209" rx="1.209" ry="1.209" transform="translate(34.668 12.093)" fill="#7a432a"/>
      <ellipse id="Ellipse_11508" data-name="Ellipse 11508" cx="1.209" cy="1.209" rx="1.209" ry="1.209" transform="translate(27.412 12.093)" fill="#7a432a"/>
      <path id="Path_1033270" data-name="Path 1033270" d="M270.743,104.913a2.448,2.448,0,0,1-2.849,2.4l-2.211-.369a19.38,19.38,0,0,0-6.361,0l-2.211.369a2.443,2.443,0,0,1-2.67-3.317h16.123A2.454,2.454,0,0,1,270.743,104.913Z" transform="translate(-230.253 -95.131)" fill="#49648e"/>
      <path id="Path_1033271" data-name="Path 1033271" d="M272.123,28.837v3.225H256V28.837A4.837,4.837,0,0,1,260.837,24h6.449a4.835,4.835,0,0,1,1.53.248c.09.03.178.062.265.1a4.835,4.835,0,0,1,3.042,4.491Z" transform="translate(-231.812 -23.193)" fill="#425b82"/>
      <path id="Path_1033272" data-name="Path 1033272" d="M293.7,31.921v3.225H280a21.414,21.414,0,0,0,10.662-7.716A4.835,4.835,0,0,1,293.7,31.921Z" transform="translate(-253.394 -26.277)" fill="#3c5174"/>
      <path id="Path_1033273" data-name="Path 1033273" d="M304,72h6.449v3.225H304Z" transform="translate(-274.975 -66.356)" fill="#e0e0de"/>
      <path id="Path_1033274" data-name="Path 1033274" d="M304,88h6.449v1.612H304Z" transform="translate(-274.975 -80.743)" fill="#d6d6d4"/>
      <path id="Path_1033275" data-name="Path 1033275" d="M354.168,104.913a2.448,2.448,0,0,1-2.849,2.4l-2.211-.369a19.281,19.281,0,0,0-2.068-.231A11.57,11.57,0,0,0,351.152,104h2.837A2.455,2.455,0,0,1,354.168,104.913Z" transform="translate(-313.678 -95.131)" fill="#425b82"/>
      <path id="Path_1033276" data-name="Path 1033276" d="M59.5,42.009l-3.987-.567-2.455-1V38.562a8.012,8.012,0,0,0,3.184-5.639h.04A3.225,3.225,0,0,0,57.16,26.6a3.21,3.21,0,0,0-.072-1.875V21.637a5.643,5.643,0,0,0-5.643-5.643H45a5.643,5.643,0,0,0-5.643,5.643v3.084a3.21,3.21,0,0,0-.072,1.875,3.225,3.225,0,0,0,.878,6.327h.04a8.012,8.012,0,0,0,3.184,5.639v1.915l-2.5,1.2-4.331.923a5.691,5.691,0,0,0-4.423,4.924,9.757,9.757,0,0,0-1.645-1.2V34.039a9.649,9.649,0,0,0,4.362-11.355.806.806,0,0,0-1.334-.322l-5.2,5.163a1.169,1.169,0,0,1-.823.334,1.142,1.142,0,0,1-.8-.336L23.792,24.63a1.143,1.143,0,0,1-.336-.8,1.167,1.167,0,0,1,.33-.819L28.953,17.8a.806.806,0,0,0-.322-1.334,9.668,9.668,0,0,0-7.82,17.57v12.28A9.649,9.649,0,0,0,16.45,57.673.806.806,0,0,0,17.784,58l5.2-5.163a1.169,1.169,0,0,1,.823-.334,1.142,1.142,0,0,1,.8.336L27.5,55.727a1.143,1.143,0,0,1,.336.8,1.166,1.166,0,0,1-.33.819l-5.168,5.208a.806.806,0,0,0,.322,1.334,9.759,9.759,0,0,0,9.658-2.228,4.037,4.037,0,0,0,3.8,2.7h2.418c.056,0,8.868-1.853,8.868-1.853v1.853h1.612V62.514l8.7,1.832a.812.812,0,0,0,.166.017h2.418a4.035,4.035,0,0,0,4.031-4.031V47.6A5.682,5.682,0,0,0,59.5,42.009ZM48.221,50.678,47.06,47.434h2.318ZM45,39.5a8.021,8.021,0,0,0,6.449,0v1.36L49.9,45.822H46.543L45,40.862Zm6.258,7.39,1.506-4.83,1.693.689-.481,5.774-2.714-1.551.026-.071Zm.28-19.877a20.112,20.112,0,0,0-6.627,0l-2.211.368a1.64,1.64,0,0,1-1.905-1.716H55.65a1.64,1.64,0,0,1-1.905,1.716Zm-.895-2.96H45.8V22.443h4.837ZM57.895,29.7a1.616,1.616,0,0,1-1.612,1.612V28.1l.01-.009a1.614,1.614,0,0,1,1.6,1.612ZM40.965,21.637A4.031,4.031,0,0,1,45,17.606h6.449a4.031,4.031,0,0,1,4.031,4.031v2.418H52.251V21.637a.806.806,0,0,0-.806-.806H45a.806.806,0,0,0-.806.806v2.418H40.965Zm-1.945,9.2a1.611,1.611,0,0,1,1.131-2.751l.008.008v3.216A1.623,1.623,0,0,1,39.02,30.838Zm2.751,1.28V28.955a3.281,3.281,0,0,0,1.19.019l.493-.082a1.209,1.209,0,1,0,2.087-.344,18.494,18.494,0,0,1,5.358,0,1.21,1.21,0,1,0,2.087.344l.493.082a4.137,4.137,0,0,0,1.19-.019v3.162a6.449,6.449,0,1,1-12.9,0Zm1.926,10,1.489,4.773-.03.011.027.075L42.47,48.525,42,42.928Zm-6.8,2.061,3.534-.753.541,6.5a.806.806,0,0,0,.428.646,1.538,1.538,0,0,0,.775-.014l3.566-2.038,1.677,4.7v1.842L42.773,54.7l-3.42-1.465V49.853H37.741v2.693l-.489-.209a.806.806,0,0,0-.318-.065H33.71V48.12A4.062,4.062,0,0,1,36.893,44.176ZM26.649,62.693a8.149,8.149,0,0,1-2.148-.024l4.158-4.191a2.773,2.773,0,0,0,.794-1.95,2.729,2.729,0,0,0-.808-1.941l-2.894-2.894a2.729,2.729,0,0,0-1.941-.808,2.777,2.777,0,0,0-1.955.8l-4.186,4.154a8.047,8.047,0,0,1,4.315-8.322.806.806,0,0,0,.439-.717V33.56a.806.806,0,0,0-.439-.718A8.056,8.056,0,0,1,26.8,17.689L22.637,21.88a2.773,2.773,0,0,0-.794,1.95,2.729,2.729,0,0,0,.808,1.941l2.894,2.894a2.729,2.729,0,0,0,1.941.808,2.777,2.777,0,0,0,1.954-.8l4.187-4.154a8.047,8.047,0,0,1-4.315,8.322.806.806,0,0,0-.439.717V46.8a.806.806,0,0,0,.439.717,8.162,8.162,0,0,1,2.786,2.35v9.621a8.085,8.085,0,0,1-5.449,3.206Zm11.814.059H36.128a2.421,2.421,0,0,1-2.418-2.418v-.806H36.6L37.977,60.9a.806.806,0,0,0,.57.236h3.947l1.807.38Zm24.269-2.418a2.421,2.421,0,0,1-2.418,2.418H57.978L42.744,59.544c-.055-.011-3.863-.017-3.863-.017L37.5,58.151a.806.806,0,0,0-.57-.236H33.71V53.884h3.059s5.659,2.409,5.747,2.416l20.216,1.555Zm0-4.1-7.249-.558,4.191-1.8h3.059Zm0-3.966H59.507a6.783,6.783,0,0,0-.806.275V49.853H57.088v2.418H50.639v1.612h4.943l-1.913.819-4.642.359V53.217l1.677-4.7,3.566,2.038a.806.806,0,0,0,1.2-.633l.564-6.775,3.232.46a4.06,4.06,0,0,1,3.462,3.99Z" transform="translate(-15.971 -15.993)"/>
      <path id="Path_1033277" data-name="Path 1033277" d="M296,368h1.612v1.612H296Z" transform="translate(-267.782 -332.528)"/>
      <path id="Path_1033278" data-name="Path 1033278" d="M317.071,181.33l-.467-1.543a9.983,9.983,0,0,1-2.9.425H312v1.612h1.706A11.592,11.592,0,0,0,317.071,181.33Z" transform="translate(-282.169 -163.281)"/>
      <path id="Path_1033279" data-name="Path 1033279" d="M104,184h1.612v14.511H104Z" transform="translate(-95.129 -167.07)"/>
    </g>
  </g>
</svg>
