<svg xmlns="http://www.w3.org/2000/svg" xmlns:xlink="http://www.w3.org/1999/xlink" width="99.621" height="99.622" viewBox="0 0 99.621 99.622">
  <defs>
    <filter id="Path_874925" x="0" y="0" width="99.621" height="99.622" filterUnits="userSpaceOnUse">
      <feOffset dy="3" input="SourceAlpha"/>
      <feGaussianBlur stdDeviation="3" result="blur"/>
      <feFlood flood-opacity="0.161"/>
      <feComposite operator="in" in2="blur"/>
      <feComposite in="SourceGraphic"/>
    </filter>
  </defs>
  <g id="Group_1109782" data-name="Group 1109782" transform="translate(-440.703 -3588)">
    <g transform="matrix(1, 0, 0, 1, 440.7, 3588)" filter="url(#Path_874925)">
      <g id="Path_874925-2" data-name="Path 874925" transform="translate(9 6)" fill="#efd42f">
        <path d="M 40.81055068969727 80.12157440185547 C 35.50299835205078 80.12157440185547 30.35500907897949 79.08242034912109 25.50957489013672 77.03297424316406 C 20.82868003845215 75.05311584472656 16.62449264526367 72.21847534179688 13.01378631591797 68.60778045654297 C 9.403091430664062 64.99707794189453 6.568456649780273 60.79288864135742 4.588597774505615 56.11199569702148 C 2.539150714874268 51.26655960083008 1.499997735023499 46.11857223510742 1.499997735023499 40.81101989746094 C 1.499997735023499 35.50299453735352 2.539150714874268 30.35500717163086 4.588597774505615 25.50957107543945 C 6.568456649780273 20.82867813110352 9.403091430664062 16.62448883056641 13.01378631591797 13.01379489898682 C 16.62449264526367 9.403100967407227 20.82868003845215 6.568453788757324 25.50957489013672 4.588606834411621 C 30.35500907897949 2.539159774780273 35.50299835205078 1.500006914138794 40.81055068969727 1.500006914138794 C 46.11810302734375 1.500006914138794 51.26609039306641 2.539159774780273 56.11152648925781 4.588606834411621 C 60.79241943359375 6.568453788757324 64.99661254882812 9.403100967407227 68.60731506347656 13.01379489898682 C 72.21800994873047 16.62448883056641 75.05264282226562 20.82867813110352 77.03250122070312 25.50957107543945 C 79.08194732666016 30.35500717163086 80.12110137939453 35.50299453735352 80.12110137939453 40.810546875 C 80.12110137939453 46.11857223510742 79.08194732666016 51.26655960083008 77.03250122070312 56.11199569702148 C 75.05264282226562 60.79288864135742 72.21800994873047 64.99707794189453 68.60731506347656 68.60778045654297 C 64.99661254882812 72.21847534179688 60.79241943359375 75.05311584472656 56.11152648925781 77.03297424316406 C 51.26609039306641 79.08242034912109 46.11810302734375 80.12157440185547 40.81055068969727 80.12157440185547 Z" stroke="none"/>
        <path d="M 40.81055068969727 3 C 35.7048454284668 3 30.75344467163086 3.999290466308594 26.09389877319336 5.970100402832031 C 21.59180450439453 7.87432861328125 17.54788208007812 10.60102081298828 14.07445526123047 14.07444763183594 C 10.60102844238281 17.54787445068359 7.874336242675781 21.591796875 5.970108032226562 26.09390258789062 C 3.999298095703125 30.75343704223633 3.000007629394531 35.70483779907227 3.000007629394531 40.8110237121582 C 3.000007629394531 45.91672897338867 3.999298095703125 50.86812973022461 5.970108032226562 55.52767944335938 C 7.874336242675781 60.02976989746094 10.60102844238281 64.07369232177734 14.07445526123047 67.547119140625 C 17.54788208007812 71.02054595947266 21.59180450439453 73.74723815917969 26.09389877319336 75.65146636962891 C 30.75344467163086 77.62227630615234 35.7048454284668 78.62156677246094 40.81055068969727 78.62156677246094 C 45.9162712097168 78.62156677246094 50.86766815185547 77.62227630615234 55.52720642089844 75.65146636962891 C 60.029296875 73.74723815917969 64.07322692871094 71.02054595947266 67.54664611816406 67.547119140625 C 71.02007293701172 64.07369232177734 73.74676513671875 60.02976989746094 75.65099334716797 55.52767944335938 C 77.62180328369141 50.86812973022461 78.62109375 45.91672897338867 78.62109375 40.8105583190918 C 78.62109375 35.70483779907227 77.62180328369141 30.75343704223633 75.65099334716797 26.09390258789062 C 73.74676513671875 21.591796875 71.02007293701172 17.54787445068359 67.54664611816406 14.07444763183594 C 64.07322692871094 10.60102081298828 60.029296875 7.87432861328125 55.52720642089844 5.970100402832031 C 50.86766815185547 3.999290466308594 45.9162712097168 3 40.81055068969727 3 M 40.81055068969727 0 C 63.34960174560547 0 81.62109375 18.27150344848633 81.62109375 40.8105583190918 L 81.62109375 40.8110237121582 C 81.62109375 63.35006332397461 63.34960174560547 81.62156677246094 40.81055068969727 81.62156677246094 C 18.27151107788086 81.62156677246094 7.62939453125e-06 63.35006332397461 7.62939453125e-06 40.8110237121582 L 7.62939453125e-06 40.8105583190918 C 7.62939453125e-06 18.27150344848633 18.27151107788086 0 40.81055068969727 0 Z" stroke="none" fill="#fff"/>
      </g>
    </g>
    <g id="Layer_2" data-name="Layer 2" transform="translate(462.171 3606.468)">
      <path id="Path_897972" data-name="Path 897972" d="M54.654,24.85l-2.348-.294a23.924,23.924,0,0,0-1.143-4.294l1.881-1.425a1.781,1.781,0,0,0,.468-2.315l-1.989-3.446a1.781,1.781,0,0,0-2.235-.751l-2.179.92A24.134,24.134,0,0,0,43.965,10.1l.92-2.174a1.781,1.781,0,0,0-.751-2.235L40.687,3.7a1.781,1.781,0,0,0-2.311.468L36.952,6.052a23.924,23.924,0,0,0-4.294-1.143L32.363,2.56A1.781,1.781,0,0,0,30.6,1H26.618A1.781,1.781,0,0,0,24.85,2.561l-.294,2.348a23.924,23.924,0,0,0-4.294,1.143L18.837,4.171A1.781,1.781,0,0,0,16.521,3.7L13.08,5.693a1.781,1.781,0,0,0-.751,2.235l.92,2.179a24.134,24.134,0,0,0-3.142,3.142l-2.179-.92a1.781,1.781,0,0,0-2.235.751L3.7,16.527a1.781,1.781,0,0,0,.468,2.315l1.881,1.425a23.924,23.924,0,0,0-1.143,4.294l-2.348.294A1.781,1.781,0,0,0,1,26.618V30.6a1.781,1.781,0,0,0,1.561,1.768l2.348.294a23.924,23.924,0,0,0,1.143,4.294L4.171,38.377A1.781,1.781,0,0,0,3.7,40.688l1.989,3.446a1.781,1.781,0,0,0,2.235.751l2.179-.92a24.134,24.134,0,0,0,3.142,3.142l-.92,2.178a1.781,1.781,0,0,0,.751,2.235l3.446,1.989a1.781,1.781,0,0,0,2.315-.468l1.425-1.881a23.924,23.924,0,0,0,4.294,1.143l.294,2.348a1.781,1.781,0,0,0,1.762,1.56H30.6a1.781,1.781,0,0,0,1.768-1.561l.294-2.348a23.924,23.924,0,0,0,4.294-1.143l1.425,1.881a1.781,1.781,0,0,0,2.311.468l3.446-1.989a1.781,1.781,0,0,0,.751-2.235l-.92-2.179a24.134,24.134,0,0,0,3.142-3.142l2.179.92a1.781,1.781,0,0,0,2.235-.751l1.989-3.446a1.781,1.781,0,0,0-.468-2.311l-1.881-1.425a23.924,23.924,0,0,0,1.143-4.294l2.348-.294A1.781,1.781,0,0,0,56.214,30.6V26.618a1.781,1.781,0,0,0-1.561-1.768ZM28.682,47.385a18.74,18.74,0,1,1,18.74-18.74A18.74,18.74,0,0,1,28.682,47.385Z" transform="translate(-0.109 -0.109)" fill="#f8c460"/>
      <path id="Path_897973" data-name="Path 897973" d="M24.7,18.411l-.629-.63a2.672,2.672,0,0,0-3.773,0l1.257,1.258a1.778,1.778,0,1,1-2.515,2.515L17.781,20.3a2.672,2.672,0,0,0,0,3.773l.63.629a2.672,2.672,0,0,0,3.772,0L36.018,38.534a2.672,2.672,0,0,0,0,3.772l.629.63a2.672,2.672,0,0,0,3.773,0l-1.257-1.258a1.778,1.778,0,0,1,2.515-2.515l1.258,1.259a2.672,2.672,0,0,0,0-3.773l-.63-.629a2.672,2.672,0,0,0-3.772,0L24.7,22.183a2.672,2.672,0,0,0,0-3.772Z" transform="translate(-1.861 -1.861)" fill="#d6e4e8"/>
      <path id="Path_897974" data-name="Path 897974" d="M37.983,42l-.629-.629a2.672,2.672,0,0,1,0-3.772L23.519,23.768a2.672,2.672,0,0,1-3.772,0l-.629-.629a2.664,2.664,0,0,1-.782-1.883l-.554-.555a2.672,2.672,0,0,0,0,3.773l.629.629a2.672,2.672,0,0,0,3.772,0L36.018,38.939a2.672,2.672,0,0,0,0,3.772l.629.629a2.672,2.672,0,0,0,3.773,0l-.555-.554A2.664,2.664,0,0,1,37.983,42Z" transform="translate(-1.861 -2.266)" fill="#baced3"/>
      <path id="Path_897975" data-name="Path 897975" d="M25.574,33.368,29.3,37.1,23,43.4a2.637,2.637,0,1,1-3.73-3.73Z" transform="translate(-2.025 -3.652)" fill="#7a838b"/>
      <path id="Path_897976" data-name="Path 897976" d="M27.538,35.557l-6.3,6.3a2.626,2.626,0,0,1-2.6.655,2.6,2.6,0,0,0,.655,1.126,2.636,2.636,0,0,0,3.73,0l6.3-6.3Z" transform="translate(-2.039 -3.892)" fill="#5d6972"/>
      <path id="Path_897977" data-name="Path 897977" d="M39.491,20.122,42.6,19.5l-.622,3.108L29.628,34.959l-2.487-2.487Z" transform="translate(-2.971 -2.134)" fill="#d6e4e8"/>
      <path id="Path_897978" data-name="Path 897978" d="M41.683,19.723a6.714,6.714,0,0,1-1.838,3.434L28.934,34.069l.891.891L42.173,22.608,42.8,19.5Z" transform="translate(-3.167 -2.134)" fill="#baced3"/>
      <path id="Path_897979" data-name="Path 897979" d="M44.646,50.1A27.62,27.62,0,0,1,8.49,13.939L7.925,13.7a1.781,1.781,0,0,0-2.235.751L3.7,17.9a1.781,1.781,0,0,0,.468,2.315l1.881,1.425a23.924,23.924,0,0,0-1.143,4.294l-2.348.294A1.781,1.781,0,0,0,1,27.992v3.979a1.781,1.781,0,0,0,1.561,1.768l2.348.294a23.924,23.924,0,0,0,1.143,4.294L4.171,39.752A1.781,1.781,0,0,0,3.7,42.063l1.989,3.446a1.781,1.781,0,0,0,2.235.751l2.179-.92a24.134,24.134,0,0,0,3.142,3.142l-.92,2.178A1.781,1.781,0,0,0,13.08,52.9l3.446,1.989a1.781,1.781,0,0,0,2.315-.468l1.425-1.881a23.924,23.924,0,0,0,4.294,1.143l.294,2.348a1.781,1.781,0,0,0,1.762,1.56H30.6a1.781,1.781,0,0,0,1.768-1.561l.294-2.348a23.924,23.924,0,0,0,4.294-1.143l1.425,1.881a1.781,1.781,0,0,0,2.311.468L44.135,52.9a1.781,1.781,0,0,0,.751-2.235Z" transform="translate(-0.109 -1.484)" fill="#faaf42"/>
      <path id="Path_897980" data-name="Path 897980" d="M29.67,10A19.631,19.631,0,1,0,49.3,29.631,19.631,19.631,0,0,0,29.67,10Zm0,37.481a17.85,17.85,0,1,1,17.85-17.85A17.85,17.85,0,0,1,29.67,47.481Z" transform="translate(-1.099 -1.094)"/>
      <path id="Path_897981" data-name="Path 897981" d="M54.655,23.857l-1.7-.213a24.928,24.928,0,0,0-.844-3.176l1.361-1.03a2.672,2.672,0,0,0,.7-3.465l-1.986-3.448A2.672,2.672,0,0,0,48.831,11.4l-1.579.666a25.185,25.185,0,0,0-2.323-2.323L45.6,8.165A2.672,2.672,0,0,0,44.47,4.809L41.023,2.823a2.677,2.677,0,0,0-3.466.7l-1.03,1.362a24.989,24.989,0,0,0-3.176-.845l-.213-1.7A2.672,2.672,0,0,0,30.487,0H26.508a2.672,2.672,0,0,0-2.651,2.341l-.213,1.7a24.989,24.989,0,0,0-3.176.845l-1.03-1.362a2.677,2.677,0,0,0-3.466-.7L12.526,4.809A2.672,2.672,0,0,0,11.4,8.165l.666,1.578a25.185,25.185,0,0,0-2.323,2.323L8.165,11.4a2.672,2.672,0,0,0-3.356,1.126L2.823,15.973a2.672,2.672,0,0,0,.7,3.464l1.362,1.031a24.927,24.927,0,0,0-.844,3.176l-1.7.213A2.672,2.672,0,0,0,0,26.508v3.979a2.672,2.672,0,0,0,2.341,2.651l1.7.213a24.928,24.928,0,0,0,.844,3.176l-1.361,1.03a2.672,2.672,0,0,0-.7,3.465l1.99,3.448A2.677,2.677,0,0,0,8.165,45.6l1.579-.666a25.185,25.185,0,0,0,2.323,2.323L11.4,48.83a2.672,2.672,0,0,0,1.127,3.356l3.446,1.989a2.676,2.676,0,0,0,3.466-.7l1.03-1.362a24.988,24.988,0,0,0,3.176.845l.213,1.7A2.672,2.672,0,0,0,26.508,57h3.979a2.672,2.672,0,0,0,2.651-2.341l.213-1.7a24.988,24.988,0,0,0,3.176-.845l1.03,1.362a2.677,2.677,0,0,0,3.466.7l3.446-1.989A2.672,2.672,0,0,0,45.6,48.83l-.666-1.578a25.183,25.183,0,0,0,2.323-2.323l1.578.665a2.672,2.672,0,0,0,3.356-1.124l1.989-3.448a2.672,2.672,0,0,0-.7-3.464l-1.362-1.031a24.929,24.929,0,0,0,.844-3.176l1.7-.213A2.672,2.672,0,0,0,57,30.487V26.508a2.672,2.672,0,0,0-2.341-2.651Zm.559,6.63a.891.891,0,0,1-.78.884l-2.348.294a.891.891,0,0,0-.768.735,23.038,23.038,0,0,1-1.1,4.134.891.891,0,0,0,.3,1.019L52.4,38.978a.891.891,0,0,1,.234,1.158L50.64,43.584a.891.891,0,0,1-1.118.373l-2.179-.919a.891.891,0,0,0-1.035.248,23.417,23.417,0,0,1-3.028,3.028.891.891,0,0,0-.251,1.03l.919,2.178a.891.891,0,0,1-.375,1.118l-3.442,1.991a.891.891,0,0,1-1.158-.233l-1.425-1.881a.891.891,0,0,0-1.02-.3,23.128,23.128,0,0,1-4.135,1.1.891.891,0,0,0-.734.767l-.294,2.348a.891.891,0,0,1-.884.78H26.508a.891.891,0,0,1-.884-.78l-.294-2.348a.891.891,0,0,0-.734-.767,23.128,23.128,0,0,1-4.135-1.1.891.891,0,0,0-1.02.3L18.017,52.4a.891.891,0,0,1-1.158.233l-3.447-1.99a.891.891,0,0,1-.374-1.118l.919-2.178a.891.891,0,0,0-.251-1.03,23.416,23.416,0,0,1-3.028-3.028.891.891,0,0,0-1.031-.252l-2.174.919a.891.891,0,0,1-1.117-.374L4.364,40.132A.891.891,0,0,1,4.6,38.974l1.881-1.425a.891.891,0,0,0,.3-1.019,23.038,23.038,0,0,1-1.1-4.134.891.891,0,0,0-.768-.735l-2.348-.294a.891.891,0,0,1-.778-.881V26.508a.891.891,0,0,1,.78-.884L4.91,25.33a.891.891,0,0,0,.768-.735,23.038,23.038,0,0,1,1.1-4.134.891.891,0,0,0-.3-1.019L4.6,18.018a.891.891,0,0,1-.234-1.158l1.989-3.448a.891.891,0,0,1,1.118-.373l2.179.919a.891.891,0,0,0,1.035-.248,23.416,23.416,0,0,1,3.028-3.028.891.891,0,0,0,.251-1.03l-.924-2.177a.891.891,0,0,1,.375-1.118l3.447-1.992a.891.891,0,0,1,1.158.233l1.425,1.881a.891.891,0,0,0,1.02.3,23.127,23.127,0,0,1,4.135-1.1.891.891,0,0,0,.734-.767l.294-2.348a.891.891,0,0,1,.88-.778h3.979a.891.891,0,0,1,.884.78l.294,2.348a.891.891,0,0,0,.734.767,23.127,23.127,0,0,1,4.135,1.1.891.891,0,0,0,1.02-.3L38.979,4.6a.891.891,0,0,1,1.158-.233l3.447,1.99a.891.891,0,0,1,.374,1.118l-.919,2.178a.891.891,0,0,0,.248,1.035,23.416,23.416,0,0,1,3.028,3.028.891.891,0,0,0,1.031.252l2.179-.92a.891.891,0,0,1,1.117.374l1.99,3.443a.891.891,0,0,1-.234,1.158l-1.881,1.425a.891.891,0,0,0-.3,1.019,23.037,23.037,0,0,1,1.1,4.134.891.891,0,0,0,.768.735l2.348.294a.891.891,0,0,1,.78.884Z" transform="translate(0 0)"/>
      <path id="Path_897982" data-name="Path 897982" d="M38.5,34.729l-4.5-4.495,7.38-7.377a.891.891,0,0,0,.243-.454l.623-3.109a.891.891,0,0,0-1.053-1.05l-3.109.623a.9.9,0,0,0-.455.243l-7.379,7.38-4.49-4.5a3.562,3.562,0,0,0-.55-4.322l-.629-.629a3.557,3.557,0,0,0-5.033,0,.891.891,0,0,0,0,1.259l1.257,1.26a.891.891,0,0,1,0,1.256.908.908,0,0,1-1.256,0L18.3,19.562a.891.891,0,0,0-1.259,0,3.562,3.562,0,0,0,0,5.033l.629.629a3.562,3.562,0,0,0,4.323.549l4.495,4.495-.567.568a.891.891,0,0,0-1.247.006l-6.3,6.3a3.528,3.528,0,0,0,4.987,4.987l6.3-6.3a.891.891,0,0,0,.006-1.247l.568-.568L34.728,38.5a3.562,3.562,0,0,0,.55,4.322l.629.629a3.557,3.557,0,0,0,5.033,0,.891.891,0,0,0,0-1.259l-1.257-1.26a.891.891,0,0,1,0-1.256.908.908,0,0,1,1.256,0L42.2,40.937a.891.891,0,0,0,1.259,0,3.562,3.562,0,0,0,0-5.033l-.629-.629a3.562,3.562,0,0,0-4.323-.547Zm.2-14.17,1.534-.307-.305,1.537L28.409,33.316l-1.228-1.227ZM22.7,23.96a.891.891,0,0,0-1.259,0,1.781,1.781,0,0,1-2.513,0l-.63-.63a1.781,1.781,0,0,1-.46-1.713l.459.458a2.732,2.732,0,0,0,3.775,0,2.672,2.672,0,0,0,0-3.774l-.46-.46a1.81,1.81,0,0,1,1.716.462l.629.629a1.781,1.781,0,0,1,0,2.513.891.891,0,0,0,0,1.259L29,27.748,27.747,29Zm-.6,16.91a1.747,1.747,0,1,1-2.47-2.472L25.3,32.726,27.771,35.2Zm20.557-1.988-.46-.459a2.732,2.732,0,0,0-3.775,0,2.672,2.672,0,0,0,0,3.774l.46.46a1.81,1.81,0,0,1-1.716-.462l-.629-.629a1.781,1.781,0,0,1,0-2.513.891.891,0,0,0,0-1.259L31.5,32.749l1.256-1.256L37.8,36.538a.891.891,0,0,0,1.259,0,1.781,1.781,0,0,1,2.513,0l.63.63a1.781,1.781,0,0,1,.46,1.714Z" transform="translate(-1.751 -1.751)"/>
      <path id="Path_897983" data-name="Path 897983" d="M26.082,37.261a.891.891,0,0,0-1.259,0l-3.562,3.562a.89.89,0,1,0,1.259,1.259l3.562-3.562A.891.891,0,0,0,26.082,37.261Z" transform="translate(-2.298 -4.05)"/>
    </g>
  </g>
</svg>
