<svg xmlns="http://www.w3.org/2000/svg" xmlns:xlink="http://www.w3.org/1999/xlink" width="113" height="113" viewBox="0 0 113 113">
  <defs>
    <filter id="Path_982547" x="0" y="0" width="113" height="113" filterUnits="userSpaceOnUse">
      <feOffset dy="3" input="SourceAlpha"/>
      <feGaussianBlur stdDeviation="3" result="blur"/>
      <feFlood flood-opacity="0.161"/>
      <feComposite operator="in" in2="blur"/>
      <feComposite in="SourceGraphic"/>
    </filter>
  </defs>
  <g id="Group_1176810" data-name="Group 1176810" transform="translate(-840 -7119.909)">
    <g id="Group_1176776" data-name="Group 1176776" transform="translate(-376.5 5821.764)">
      <g id="Group_1171049" data-name="Group 1171049" transform="translate(1225.5 1304.145)">
        <g id="Group_1148525" data-name="Group 1148525" transform="translate(0)">
          <g transform="matrix(1, 0, 0, 1, -9, -6)" filter="url(#Path_982547)">
            <g id="Path_982547-2" data-name="Path 982547" transform="translate(9 6)" fill="#f2f8ff">
              <path d="M 47.5 93.5 C 41.28937149047852 93.5 35.26533508300781 92.28397369384766 29.59518623352051 89.88570404052734 C 24.11771965026855 87.56893157958984 19.19813346862793 84.25196075439453 14.97309303283691 80.02691650390625 C 10.74804019927979 75.80186462402344 7.431066513061523 70.88229370117188 5.114293098449707 65.40481567382812 C 2.716026782989502 59.73468017578125 1.5 53.71062850952148 1.5 47.5 C 1.5 41.28937149047852 2.716026782989502 35.26533508300781 5.114293098449707 29.59518623352051 C 7.431066513061523 24.11771965026855 10.74804019927979 19.19813346862793 14.97309303283691 14.97309303283691 C 19.19813346862793 10.74804019927979 24.11771965026855 7.431066513061523 29.59518623352051 5.114293098449707 C 35.26533508300781 2.716026782989502 41.28937149047852 1.5 47.5 1.5 C 53.71062850952148 1.5 59.73468017578125 2.716026782989502 65.40481567382812 5.114293098449707 C 70.88229370117188 7.431066513061523 75.80186462402344 10.74804019927979 80.02691650390625 14.97309303283691 C 84.25196075439453 19.19813346862793 87.56893157958984 24.11771965026855 89.88570404052734 29.59518623352051 C 92.28397369384766 35.26533508300781 93.5 41.28937149047852 93.5 47.5 C 93.5 53.71062850952148 92.28397369384766 59.73468017578125 89.88570404052734 65.40481567382812 C 87.56893157958984 70.88229370117188 84.25196075439453 75.80186462402344 80.02691650390625 80.02691650390625 C 75.80186462402344 84.25196075439453 70.88229370117188 87.56893157958984 65.40481567382812 89.88570404052734 C 59.73468017578125 92.28397369384766 53.71062850952148 93.5 47.5 93.5 Z" stroke="none"/>
              <path d="M 47.5 3 C 41.49121475219727 3 35.66376876831055 4.176155090332031 30.17950439453125 6.495796203613281 C 24.88084411621094 8.736953735351562 20.12152099609375 11.94598388671875 16.03375244140625 16.03375244140625 C 11.94598388671875 20.12152099609375 8.736953735351562 24.88084411621094 6.495796203613281 30.17950439453125 C 4.176155090332031 35.66376876831055 3 41.49121475219727 3 47.5 C 3 53.50878524780273 4.176155090332031 59.33623123168945 6.495796203613281 64.82049560546875 C 8.736953735351562 70.11915588378906 11.94598388671875 74.87847900390625 16.03375244140625 78.96624755859375 C 20.12152099609375 83.05401611328125 24.88084411621094 86.26304626464844 30.17950439453125 88.50419616699219 C 35.66376876831055 90.82384490966797 41.49121475219727 92 47.5 92 C 53.50878524780273 92 59.33623123168945 90.82384490966797 64.82049560546875 88.50419616699219 C 70.11915588378906 86.26304626464844 74.87847900390625 83.05401611328125 78.96624755859375 78.96624755859375 C 83.05401611328125 74.87847900390625 86.26304626464844 70.11915588378906 88.50419616699219 64.82049560546875 C 90.82384490966797 59.33623123168945 92 53.50878524780273 92 47.5 C 92 41.49121475219727 90.82384490966797 35.66376876831055 88.50419616699219 30.17950439453125 C 86.26304626464844 24.88084411621094 83.05401611328125 20.12152099609375 78.96624755859375 16.03375244140625 C 74.87847900390625 11.94598388671875 70.11915588378906 8.736953735351562 64.82049560546875 6.495796203613281 C 59.33623123168945 4.176155090332031 53.50878524780273 3 47.5 3 M 47.5 0 C 73.7335205078125 0 95 21.2664794921875 95 47.5 C 95 73.7335205078125 73.7335205078125 95 47.5 95 C 21.2664794921875 95 0 73.7335205078125 0 47.5 C 0 21.2664794921875 21.2664794921875 0 47.5 0 Z" stroke="none" fill="#2d3bf3"/>
            </g>
          </g>
        </g>
      </g>
    </g>
    <g id="technician_6331739_1_" data-name="technician_6331739 (1)" transform="translate(864.541 7141.409)">
      <path id="Path_1033280" data-name="Path 1033280" d="M4,57.983v2a2,2,0,0,0,2,2H8a2,2,0,0,0,2-2v-2" fill="#39474d"/>
      <rect id="Rectangle_415836" data-name="Rectangle 415836" width="34" height="4" rx="2" transform="translate(2 40.983)" fill="#c43d32"/>
      <path id="Path_1033281" data-name="Path 1033281" d="M31.932,44.932l-.517-7.949A5.433,5.433,0,0,0,26,32H12a5.433,5.433,0,0,0-5.415,4.984l-.517,7.948Z" fill="#3b98e0"/>
      <path id="Path_1033282" data-name="Path 1033282" d="M9.517,36.983,9,44.932H31.932l-.517-7.949A5.433,5.433,0,0,0,26,32H14.932a5.433,5.433,0,0,0-5.415,4.984Z" fill="#41a5ef"/>
      <path id="Path_1033283" data-name="Path 1033283" d="M34,53.983v-5h0a5,5,0,0,0-5-5H9a5,5,0,0,0-5,5H4v5Z" fill="#c43d32"/>
      <rect id="Rectangle_415837" data-name="Rectangle 415837" width="34" height="4" rx="2" transform="translate(2 53.983)" fill="#475a62"/>
      <path id="Path_1033284" data-name="Path 1033284" d="M34,53.983H4a2,2,0,0,0,2,2H36A2,2,0,0,0,34,53.983Z" fill="#586e7a"/>
      <path id="Path_1033285" data-name="Path 1033285" d="M26,32H12a5.432,5.432,0,0,0-5.238,4H31.238A5.432,5.432,0,0,0,26,32Z" fill="#c43d32"/>
      <path id="Path_1033286" data-name="Path 1033286" d="M9.693,36H31.238A5.432,5.432,0,0,0,26,32H14.932a5.434,5.434,0,0,0-5.239,4Z" fill="#e2513a"/>
      <path id="Path_1033287" data-name="Path 1033287" d="M25,46.983a4,4,0,1,1,4-4A4,4,0,0,1,25,46.983Zm0-6a2,2,0,1,0,2,2A2,2,0,0,0,25,40.983Z" fill="#3186cd"/>
      <path id="Path_1033288" data-name="Path 1033288" d="M34,48.983a5,5,0,0,0-5-5H9a4.95,4.95,0,0,0-2.375.625A4.947,4.947,0,0,0,6,46.983a5,5,0,0,0,5,5H34Z" fill="#e2513a"/>
      <path id="Path_1033289" data-name="Path 1033289" d="M10,48.175a1.808,1.808,0,0,0-1.1-1.662L5.79,45.178A4.968,4.968,0,0,0,4,48.983v1H8.192A1.808,1.808,0,0,0,10,48.175Z" fill="#f2c141"/>
      <path id="Path_1033290" data-name="Path 1033290" d="M32.21,45.179,29.1,46.513a1.808,1.808,0,0,0,.712,3.47H34v-1a4.965,4.965,0,0,0-1.79-3.8Z" fill="#f8d84b"/>
      <path id="Path_1033291" data-name="Path 1033291" d="M8.9,46.513,6.285,45.391A4.768,4.768,0,0,0,6,46.983a4.956,4.956,0,0,0,1.023,3H8.192a1.808,1.808,0,0,0,.712-3.47Z" fill="#f8d84b"/>
      <path id="Path_1033292" data-name="Path 1033292" d="M5,58.983a2,2,0,0,0,2,2H9a1.99,1.99,0,0,0,.82-.18,1.99,1.99,0,0,0,.18-.82v-2H5Z" fill="#283237"/>
      <path id="Path_1033293" data-name="Path 1033293" d="M34,57.983v2a2,2,0,0,1-2,2H30a2,2,0,0,1-2-2v-2" fill="#39474d"/>
      <path id="Path_1033294" data-name="Path 1033294" d="M33,58.983a2,2,0,0,1-2,2H29a1.99,1.99,0,0,1-.82-.18,1.99,1.99,0,0,1-.18-.82v-2h5Z" fill="#283237"/>
      <path id="Path_1033295" data-name="Path 1033295" d="M26,53.983l-1.106-2.211A3.234,3.234,0,0,0,22,49.983H16a3.234,3.234,0,0,0-2.894,1.79L12,53.983" fill="#39474d"/>
      <path id="Path_1033296" data-name="Path 1033296" d="M26,53.983l-1.106-2.211a2.983,2.983,0,0,0-.171-.29,3.224,3.224,0,0,0-1.723-.5H17a3.234,3.234,0,0,0-2.894,1.79L13.5,53.983Z" fill="#475a62"/>
      <path id="Path_1033297" data-name="Path 1033297" d="M36,36.484V39l-9.209,2.3A8.966,8.966,0,0,0,20,50h0V62H62V50h0a8.967,8.967,0,0,0-6.793-8.7L46,39V36.484Z" fill="#b2b2b2"/>
      <path id="Path_1033298" data-name="Path 1033298" d="M55.209,41.3,46,39V36.484H39V39l-9.209,2.3A8.966,8.966,0,0,0,23,50V62H62V50a8.967,8.967,0,0,0-6.793-8.7Z" fill="#cbcbcb"/>
      <path id="Path_1033299" data-name="Path 1033299" d="M46,39l-.03.119A5.123,5.123,0,0,1,41,43h0a5.123,5.123,0,0,1-4.97-3.881L36,39V35H46Z" fill="#f2ad73"/>
      <path id="Path_1033300" data-name="Path 1033300" d="M50,25h1a3,3,0,0,1,3,3h0a3,3,0,0,1-3,3H49.776" fill="#f2ad73"/>
      <path id="Path_1033301" data-name="Path 1033301" d="M32,25H31a3,3,0,0,0-3,3h0a3,3,0,0,0,3,3h1.224" fill="#f2ad73"/>
      <path id="Path_1033302" data-name="Path 1033302" d="M41,38h0a9,9,0,0,0,9-9V18h0a5.55,5.55,0,0,0-3.8-5.265h0A14.317,14.317,0,0,0,41.675,12h-1.35a14.32,14.32,0,0,0-4.532.736h0A5.55,5.55,0,0,0,32,18h0V29a9,9,0,0,0,9,9Z" fill="#f2ad73"/>
      <path id="Path_1033303" data-name="Path 1033303" d="M42,37.941A9,9,0,0,0,50,29V18a5.55,5.55,0,0,0-3.8-5.265,14.319,14.319,0,0,0-4.2-.722,14.319,14.319,0,0,0-4.2.722A5.55,5.55,0,0,0,34,18V29A9,9,0,0,0,42,37.941Z" fill="#f9c387"/>
      <path id="Path_1033304" data-name="Path 1033304" d="M50,24l-1.149,1.723A2.867,2.867,0,0,1,46.465,27h0a2.875,2.875,0,0,1-.906-.147l-.662-.221A12.343,12.343,0,0,0,41,26h0a12.345,12.345,0,0,0-3.9.632l-.661.221a2.875,2.875,0,0,1-.906.147h0a2.867,2.867,0,0,1-2.386-1.277L32,24V21H50Z" fill="#2976b9"/>
      <path id="Path_1033305" data-name="Path 1033305" d="M46.205,12.735A14.317,14.317,0,0,0,41.675,12h-1.35a14.32,14.32,0,0,0-4.532.736A5.55,5.55,0,0,0,32,18v6a18.946,18.946,0,0,1,8.472-2h1.056A18.945,18.945,0,0,1,50,24V18a5.55,5.55,0,0,0-3.795-5.265Z" fill="#2976b9"/>
      <path id="Path_1033306" data-name="Path 1033306" d="M50,18a5.55,5.55,0,0,0-3.8-5.265,14.319,14.319,0,0,0-4.2-.722,14.319,14.319,0,0,0-4.2.722A5.55,5.55,0,0,0,34,18v5.141A18.924,18.924,0,0,1,40.472,22h1.056A18.945,18.945,0,0,1,50,24Z" fill="#3186cd"/>
      <path id="Path_1033307" data-name="Path 1033307" d="M42.079,12.216l-.8-.16c-.425.03-.849.075-1.269.142l-.088.018A4.876,4.876,0,0,0,36,17v5.55A18.927,18.927,0,0,1,40.472,22h1.056A18.923,18.923,0,0,1,46,22.539V17a4.876,4.876,0,0,0-3.921-4.784Z" fill="#41a5ef"/>
      <path id="Path_1033308" data-name="Path 1033308" d="M41,19a2,2,0,1,1,2-2A2,2,0,0,1,41,19Zm0-2Z" fill="#2976b9"/>
      <path id="Path_1033309" data-name="Path 1033309" d="M27,62V55l1.774-14.194L33,39.75V51H49V39.75l4.226,1.056L55,55v7Z" fill="#2976b9"/>
      <path id="Path_1033310" data-name="Path 1033310" d="M53.226,40.806,49,39.75V51H33V39.75l-2.034.509L29,55v7H55V55Z" fill="#3b98e0"/>
      <rect id="Rectangle_415838" data-name="Rectangle 415838" width="18" height="2" transform="translate(32 57)" fill="#2976b9"/>
      <path id="Path_1033311" data-name="Path 1033311" d="M24,12h3a4,4,0,0,0,4-4V6L28.58,7.613A2.3,2.3,0,0,1,27.3,8h0A2.3,2.3,0,0,1,25,5.7h0a2.3,2.3,0,0,1,.387-1.277L27,2H25a4,4,0,0,0-4,4V9l-9,9H9a4,4,0,0,0-4,4H5v2l2.42-1.613A2.3,2.3,0,0,1,8.7,22h0A2.3,2.3,0,0,1,11,24.3h0a2.3,2.3,0,0,1-.387,1.277L9,28h2a4,4,0,0,0,4-4V21Z" fill="#cbcbcb"/>
      <path id="Path_1033312" data-name="Path 1033312" d="M28.58,7.613a2.3,2.3,0,0,1-2.906-.287L10.326,22.674A2.3,2.3,0,0,1,11,24.3h0a2.3,2.3,0,0,1-.387,1.277L9,28h2a4,4,0,0,0,4-4V21l9-9h3a4,4,0,0,0,4-4V6Z" fill="#b2b2b2"/>
      <path id="Path_1033313" data-name="Path 1033313" d="M45.97,39.119,46,39V37.482a8.947,8.947,0,0,1-8,.995V39l.03.119A5.117,5.117,0,0,0,42,42.892a5.117,5.117,0,0,0,3.97-3.773Z" fill="#f9c387"/>
      <circle id="Ellipse_11509" data-name="Ellipse 11509" cx="2" cy="2" r="2" transform="translate(39 15)"/>
      <path id="Path_1033314" data-name="Path 1033314" d="M55.451,40.333,47,38.22V36.981A10.033,10.033,0,0,0,50.539,32H51a4,4,0,0,0,0-8V18a6.54,6.54,0,0,0-4.479-6.213A15.271,15.271,0,0,0,41.676,11H40.324a15.3,15.3,0,0,0-4.845.786A6.542,6.542,0,0,0,31,18v6a4,4,0,0,0,0,8h.461A10.033,10.033,0,0,0,35,36.981V38.22l-2.463.616L32.411,36.9A6.47,6.47,0,0,0,26,31H12a6.475,6.475,0,0,0-6.413,5.918l-.2,3.064H4a2.993,2.993,0,1,0-.177,5.983A5.954,5.954,0,0,0,3,48.982v4.185A2.982,2.982,0,0,0,3,58.8v1.184a3,3,0,0,0,3,3H8a3,3,0,0,0,3-3v-1h8V62a1,1,0,0,0,1,1H62a1,1,0,0,0,1-1V50A9.947,9.947,0,0,0,55.451,40.333ZM54,55.062V61H28V55.062L29.682,41.61,32,41.031V51a1,1,0,0,0,1,1H49a1,1,0,0,0,1-1V41.031l2.318.579Zm-38-6.08a4.214,4.214,0,0,0-3.789,2.342l-.829,1.658H5v-2H8.192A2.807,2.807,0,0,0,9.3,45.594l-1.181-.506A3.959,3.959,0,0,1,9,44.982H20.359a9.935,9.935,0,0,0-1.3,4Zm3,2v2H13.618L14,52.219a2.223,2.223,0,0,1,2-1.237ZM6.005,46.358,8.51,47.432a.808.808,0,0,1-.318,1.55H5a3.965,3.965,0,0,1,1-2.624ZM37,17a3.889,3.889,0,0,1,3.117-3.8L41,13.02l.883.176A3.889,3.889,0,0,1,45,17v4.308A19.822,19.822,0,0,0,41.528,21H40.472A19.822,19.822,0,0,0,37,21.308Zm3.472,6h1.056a18.06,18.06,0,0,1,6.99,1.421l-.5.747a1.894,1.894,0,0,1-2.146.735l-.66-.218a13.375,13.375,0,0,0-8.427,0l-.663.22a1.9,1.9,0,0,1-2.144-.736l-.5-.747A18.06,18.06,0,0,1,40.472,23ZM53,28a2,2,0,0,1-2,2h-.051A10.006,10.006,0,0,0,51,29V26A2,2,0,0,1,53,28ZM49,18v4.462a19.824,19.824,0,0,0-2-.688V17a5.841,5.841,0,0,0-1.03-3.281A4.538,4.538,0,0,1,49,18ZM36.031,13.718A5.835,5.835,0,0,0,35,17v4.774a19.822,19.822,0,0,0-2,.688V18a4.538,4.538,0,0,1,3.031-4.282ZM31,30a2,2,0,0,1,0-4v3a10.007,10.007,0,0,0,.051,1Zm2-1V27.029a3.938,3.938,0,0,0,3.757.773l.662-.221a11.366,11.366,0,0,1,7.163,0l.659.219A3.857,3.857,0,0,0,49,27.049V29a8,8,0,0,1-16,0Zm8,10a9.93,9.93,0,0,0,4-.841v.718a4.122,4.122,0,0,1-8,0V38.16A9.929,9.929,0,0,0,41,39Zm-5.656,1.194a6.106,6.106,0,0,0,11.312,0L48,40.53V50H34V40.53Zm-7.654-.146A3.952,3.952,0,0,0,25,38.982a4,4,0,0,0-4,4H9a5.962,5.962,0,0,0-1.821.285l.4-6.2c0-.022.01-.043.012-.065H30.408c0,.016.008.031.009.047l.148,2.282Zm-3.021.968a9.912,9.912,0,0,0-1.153.638,1.993,1.993,0,0,1,1.153-.638ZM12,33H26a4.448,4.448,0,0,1,3.682,2H8.321A4.442,4.442,0,0,1,12,33ZM3,42.982a1,1,0,0,1,1-1H5.258l-.13,2H4A1,1,0,0,1,3,42.982Zm6,17a1,1,0,0,1-1,1H6a1,1,0,0,1-1-1v-1H9Zm-5-3a1,1,0,0,1,0-2H19v2ZM21,50a7.954,7.954,0,0,1,6.033-7.728l.568-.142L26.008,54.876A1.031,1.031,0,0,0,26,55v6H21ZM61,61H56V55a1.032,1.032,0,0,0-.008-.124L54.4,42.13l.568.142A7.954,7.954,0,0,1,61,50Z"/>
      <rect id="Rectangle_415839" data-name="Rectangle 415839" width="18" height="2" transform="translate(32 57)"/>
      <path id="Path_1033315" data-name="Path 1033315" d="M4.528,24.882a1,1,0,0,0,1.027-.05l2.42-1.613a1.3,1.3,0,0,1,1.806,1.8l-1.613,2.42A1,1,0,0,0,9,29h2a5.006,5.006,0,0,0,5-5V21.414L24.414,13H27a5.006,5.006,0,0,0,5-5V6a1,1,0,0,0-1.555-.832l-2.42,1.613a1.3,1.3,0,0,1-1.806-1.8l1.613-2.42A1,1,0,0,0,27,1H25a5.006,5.006,0,0,0-5,5V8.586L11.586,17H9a5.006,5.006,0,0,0-5,5v2a1,1,0,0,0,.528.882ZM6,22a3,3,0,0,1,3-3h3a1,1,0,0,0,.707-.293l9-9A1,1,0,0,0,22,9V6a3,3,0,0,1,3-3h.132l-.577.865a3.3,3.3,0,0,0,4.58,4.58L30,7.868V8a3,3,0,0,1-3,3H24a1,1,0,0,0-.707.293l-9,9A1,1,0,0,0,14,21v3a3,3,0,0,1-3,3h-.132l.577-.865a3.3,3.3,0,0,0-4.58-4.58L6,22.132Z"/>
    </g>
  </g>
</svg>
